<?xml version="1.0" encoding="utf-8"?>
<!-- Generator: Adobe Illustrator 28.0.0, SVG Export Plug-In . SVG Version: 6.00 Build 0)  -->
<svg version="1.1" id="Layer_1" xmlns="http://www.w3.org/2000/svg" xmlns:xlink="http://www.w3.org/1999/xlink" x="0px" y="0px"
	 viewBox="0 0 1224 792" style="enable-background:new 0 0 1224 792;" xml:space="preserve">
<style type="text/css">
	.st0{fill:none;stroke:#000000;stroke-width:0.72;stroke-linecap:round;stroke-linejoin:round;stroke-miterlimit:10;}
	.st1{fill:none;stroke:#000000;stroke-width:1.44;stroke-linecap:round;stroke-linejoin:round;stroke-miterlimit:10;}
	.st2{fill:none;}
</style>
<polyline class="st0" points="268.92,135.36 268.86,135.84 268.74,136.26 268.56,136.68 268.26,136.98 267.96,137.28 267.54,137.52 
	267.12,137.7 266.7,137.76 266.22,137.7 265.8,137.58 265.38,137.4 "/>
<polyline class="st0" points="264.18,135.36 264.18,135.18 264.3,134.7 264.48,134.28 264.72,133.92 265.02,133.62 265.38,133.32 
	265.8,133.14 266.22,133.02 266.7,133.02 267.12,133.08 267.54,133.2 267.78,133.38 "/>
<polyline class="st0" points="248.4,172.44 248.34,172.92 248.22,173.34 247.98,173.7 247.74,174.06 247.38,174.36 247.02,174.6 
	246.6,174.72 246.12,174.78 245.7,174.78 245.22,174.66 244.86,174.48 244.8,174.48 "/>
<polyline class="st0" points="243.66,172.44 243.66,172.2 243.72,171.78 243.9,171.36 244.14,171 244.44,170.64 244.86,170.4 
	245.22,170.22 245.7,170.1 246.12,170.1 246.6,170.16 247.02,170.28 247.2,170.4 "/>
<polyline class="st0" points="281.34,150.96 281.28,151.44 281.16,151.86 280.98,152.28 280.68,152.64 280.32,152.94 279.96,153.12 
	279.54,153.3 279.06,153.36 278.64,153.3 278.22,153.24 277.8,153.06 277.8,153 "/>
<polyline class="st0" points="276.6,150.96 276.6,150.78 276.72,150.3 276.9,149.88 277.14,149.52 277.44,149.22 277.8,148.92 
	278.22,148.74 278.64,148.68 279.06,148.62 279.54,148.68 279.96,148.86 280.14,148.98 "/>
<polyline class="st0" points="268.2,174.6 268.14,175.02 268.02,175.44 267.84,175.86 267.54,176.22 267.18,176.52 266.82,176.76 
	266.4,176.88 265.92,176.94 265.5,176.94 265.08,176.82 264.66,176.64 "/>
<polyline class="st0" points="263.46,174.6 263.46,174.36 263.58,173.94 263.7,173.52 264,173.1 264.3,172.8 264.66,172.56 
	265.08,172.38 265.5,172.26 265.92,172.2 266.4,172.26 266.82,172.44 267,172.56 "/>
<polyline class="st0" points="287.04,169.26 286.98,169.68 286.86,170.1 286.62,170.52 286.38,170.88 286.02,171.18 285.66,171.42 
	285.24,171.54 284.76,171.6 284.34,171.6 283.86,171.48 283.5,171.3 "/>
<polyline class="st0" points="282.3,169.26 282.3,169.02 282.42,168.6 282.54,168.18 282.78,167.76 283.14,167.46 283.5,167.22 
	283.86,167.04 284.34,166.92 284.76,166.86 285.24,166.98 285.66,167.1 285.84,167.22 "/>
<line class="st0" x1="220.08" y1="166.5" x2="228.66" y2="165"/>
<line class="st0" x1="213.78" y1="130.86" x2="214.86" y2="137.04"/>
<line class="st0" x1="215.46" y1="140.4" x2="216.6" y2="147"/>
<line class="st0" x1="217.2" y1="150.36" x2="218.4" y2="157.02"/>
<line class="st0" x1="218.94" y1="160.32" x2="220.08" y2="166.5"/>
<line class="st0" x1="222.36" y1="129.3" x2="213.78" y2="130.86"/>
<line class="st0" x1="228.66" y1="165" x2="227.58" y2="158.82"/>
<line class="st0" x1="226.98" y1="155.46" x2="225.84" y2="148.8"/>
<line class="st0" x1="225.24" y1="145.5" x2="224.04" y2="138.84"/>
<line class="st0" x1="223.5" y1="135.54" x2="222.36" y2="129.3"/>
<polyline class="st0" points="296.22,172.56 296.28,172.2 296.4,171.78 296.58,171.42 296.7,171.06 "/>
<polyline class="st0" points="249.72,111.96 249.24,112.02 248.7,112.02 248.16,112.02 247.62,112.08 247.02,112.14 246.48,112.2 
	245.88,112.26 245.34,112.32 244.74,112.44 244.14,112.56 243.54,112.62 242.94,112.74 242.28,112.92 241.92,112.98 "/>
<polyline class="st0" points="238.68,113.76 238.32,113.88 237.66,114.06 236.94,114.24 236.22,114.48 235.5,114.66 234.78,114.9 
	234.06,115.14 233.28,115.38 232.5,115.62 232.2,115.74 "/>
<polyline class="st0" points="229.02,116.76 228.6,116.94 227.82,117.18 226.98,117.48 226.14,117.78 225.36,118.08 224.52,118.44 
	223.68,118.74 222.84,119.04 222.66,119.1 "/>
<polyline class="st0" points="219.54,120.36 219.42,120.42 218.58,120.78 217.74,121.08 216.9,121.5 216,121.86 215.16,122.22 
	214.32,122.58 213.48,123 213.3,123.06 "/>
<polyline class="st0" points="210.3,124.5 210.12,124.56 209.34,124.98 208.5,125.4 207.66,125.82 206.88,126.3 206.1,126.72 
	205.32,127.14 204.54,127.62 204.36,127.74 "/>
<polyline class="st0" points="201.48,129.48 200.88,129.9 200.16,130.38 199.5,130.86 198.84,131.34 198.18,131.82 197.52,132.36 
	196.92,132.84 196.32,133.32 196.08,133.56 "/>
<polyline class="st0" points="193.68,135.9 193.62,135.96 193.2,136.5 192.72,137.04 192.48,137.28 192.3,137.58 192.06,137.82 
	191.88,138.12 191.7,138.36 191.52,138.66 191.34,138.9 191.16,139.2 190.98,139.5 190.8,139.74 190.62,140.04 190.5,140.34 
	190.32,140.58 190.2,140.88 190.08,141.18 189.96,141.42 189.9,141.48 "/>
<polyline class="st0" points="189,144.72 188.94,144.9 188.88,145.2 188.88,145.5 188.82,145.8 188.82,146.1 188.82,146.4 
	188.82,146.7 188.82,147 188.82,147.3 188.82,147.6 188.88,147.9 188.88,148.2 188.94,148.5 189,148.8 189,149.1 189.06,149.4 
	189.12,149.7 189.24,150 189.3,150.3 189.36,150.6 189.48,150.9 189.6,151.2 189.66,151.38 "/>
<polyline class="st0" points="191.04,154.44 191.1,154.56 191.28,154.86 191.46,155.16 191.7,155.46 191.88,155.76 192.06,156.06 
	192.3,156.36 192.54,156.66 192.72,156.96 192.96,157.26 193.2,157.56 193.44,157.86 193.68,158.16 194.22,158.76 194.76,159.36 
	195.12,159.78 "/>
<polyline class="st0" points="197.52,162.18 197.7,162.36 198.36,162.96 199.02,163.5 199.74,164.1 200.4,164.64 201.12,165.24 
	201.9,165.78 202.62,166.38 202.74,166.44 "/>
<polyline class="st0" points="205.5,168.36 205.74,168.54 206.58,169.08 207.42,169.62 208.26,170.1 209.1,170.64 209.94,171.12 
	210.84,171.6 211.26,171.9 "/>
<polyline class="st0" points="214.26,173.46 214.38,173.58 215.28,174 216.18,174.48 217.08,174.9 217.98,175.38 218.94,175.8 
	219.84,176.22 220.32,176.4 "/>
<polyline class="st0" points="223.44,177.72 223.62,177.84 224.58,178.2 225.54,178.62 226.5,178.98 227.46,179.34 228.42,179.7 
	229.38,180 229.74,180.12 "/>
<polyline class="st0" points="232.92,181.2 233.22,181.32 234.18,181.62 235.14,181.86 236.1,182.16 237.06,182.46 238.02,182.7 
	238.98,182.94 239.4,183.06 "/>
<polyline class="st0" points="242.7,183.84 242.82,183.9 243.78,184.08 244.74,184.26 245.64,184.5 246.6,184.68 247.56,184.86 
	248.46,184.98 249.3,185.16 "/>
<polyline class="st0" points="252.66,185.64 253.08,185.7 253.98,185.76 254.88,185.88 255.78,186 256.68,186.06 257.58,186.12 
	258.42,186.18 259.32,186.24 259.38,186.24 "/>
<polyline class="st0" points="262.74,186.36 263.58,186.42 264.42,186.42 265.2,186.42 266.04,186.36 266.88,186.36 267.66,186.3 
	268.44,186.3 269.22,186.24 269.52,186.18 "/>
<polyline class="st0" points="272.88,185.88 273.06,185.82 273.78,185.76 274.5,185.64 275.22,185.52 275.94,185.4 276.66,185.28 
	277.32,185.1 278.04,184.98 278.7,184.8 279.36,184.62 279.48,184.62 "/>
<polyline class="st0" points="282.72,183.66 283.14,183.48 283.74,183.24 284.34,183 284.88,182.82 285.48,182.52 286.02,182.28 
	286.56,182.04 287.1,181.74 287.58,181.5 288.12,181.2 288.6,180.9 288.84,180.78 "/>
<polyline class="st0" points="291.54,178.8 291.72,178.68 292.14,178.32 292.5,177.96 292.86,177.6 293.22,177.24 293.58,176.82 
	293.88,176.46 294.24,176.04 294.54,175.62 294.78,175.2 295.08,174.78 295.32,174.36 295.56,173.94 295.8,173.46 295.98,172.98 
	296.22,172.56 "/>
<polyline class="st1" points="543.54,140.34 543.54,131.58 603.78,131.58 603.78,140.34 543.54,140.34 "/>
<polyline class="st1" points="401.1,140.34 401.1,131.58 461.34,131.58 461.34,140.34 401.1,140.34 "/>
<polyline class="st1" points="249.72,111.96 250.2,112.02 250.68,112.02 251.16,112.02 251.64,112.08 252.06,112.14 252.54,112.14 
	253.02,112.26 253.44,112.32 253.92,112.38 254.34,112.5 254.82,112.62 255.24,112.74 255.66,112.86 256.14,112.98 256.56,113.16 
	257.04,113.28 257.46,113.46 257.94,113.7 258.36,113.88 258.84,114.06 259.26,114.3 259.74,114.54 260.22,114.78 260.64,115.02 
	261.12,115.32 261.6,115.56 262.08,115.86 262.56,116.16 263.04,116.46 263.52,116.82 264,117.12 264.48,117.48 264.96,117.84 
	265.44,118.2 265.92,118.56 266.4,118.98 266.94,119.4 267.42,119.76 267.9,120.18 268.44,120.6 268.92,121.08 269.46,121.5 
	269.94,121.98 270.48,122.4 270.96,122.88 271.5,123.36 271.98,123.9 272.52,124.38 273.06,124.86 273.54,125.4 274.08,125.94 
	274.56,126.42 275.1,126.96 275.64,127.5 276.12,128.1 276.66,128.64 277.2,129.18 277.68,129.78 278.22,130.32 278.7,130.92 
	279.72,132.12 280.74,133.32 281.76,134.52 282.72,135.78 283.68,136.98 284.64,138.24 285.6,139.56 286.02,140.16 286.5,140.82 
	286.92,141.48 287.4,142.08 287.82,142.74 288.24,143.4 288.66,144.06 289.08,144.66 289.5,145.32 289.92,145.98 290.28,146.64 
	290.7,147.24 291.06,147.9 291.42,148.56 291.78,149.16 292.14,149.82 292.5,150.48 292.8,151.08 293.1,151.74 293.46,152.34 
	293.76,153 294,153.6 294.3,154.26 294.54,154.86 294.84,155.46 295.08,156.06 295.32,156.72 295.5,157.32 295.74,157.92 
	295.92,158.52 296.1,159.06 296.28,159.66 296.46,160.26 296.58,160.8 296.7,161.4 296.82,161.94 296.94,162.54 297.06,163.08 
	297.12,163.62 297.18,164.16 297.24,164.7 297.24,165.24 297.3,165.72 297.3,166.26 297.3,166.8 297.3,167.28 297.24,167.76 
	297.24,168.24 297.18,168.78 297.12,169.26 297,169.68 296.94,170.16 296.82,170.64 296.7,171.06 296.82,170.76 297,170.4 
	297.18,170.04 297.36,169.74 297.6,169.38 297.78,169.08 298.02,168.78 298.26,168.48 298.5,168.18 298.74,167.88 299.04,167.58 
	299.34,167.28 299.58,167.04 299.94,166.74 300.24,166.5 300.54,166.2 300.9,165.96 301.26,165.72 301.62,165.48 302.04,165.24 
	302.4,165 302.82,164.76 303.24,164.52 303.66,164.28 304.14,164.1 304.56,163.86 305.04,163.68 305.52,163.5 306,163.26 
	306.54,163.08 307.02,162.9 307.56,162.72 308.1,162.6 308.64,162.42 309.24,162.24 309.78,162.12 310.38,161.94 310.98,161.82 
	311.64,161.64 312.24,161.52 312.9,161.4 313.56,161.28 314.22,161.16 314.88,161.04 315.6,160.98 316.26,160.86 316.98,160.74 
	317.7,160.68 318.48,160.62 319.2,160.5 319.98,160.44 320.76,160.38 321.54,160.32 322.38,160.26 323.16,160.2 324,160.14 
	324.84,160.14 325.68,160.08 326.58,160.08 327.42,160.02 328.32,160.02 329.22,160.02 330.12,159.96 331.08,159.96 617.76,159.96 
	618.18,159.96 618.6,159.96 619.02,159.96 619.44,159.96 619.8,159.96 620.16,159.96 620.58,159.9 620.88,159.9 621.24,159.84 
	621.6,159.84 621.9,159.78 622.26,159.78 622.56,159.72 622.86,159.66 623.16,159.66 623.4,159.6 623.7,159.54 623.94,159.48 
	624.24,159.42 624.48,159.36 624.72,159.3 624.96,159.18 625.14,159.12 625.38,159.06 625.56,158.94 625.74,158.88 625.98,158.76 
	626.16,158.64 626.34,158.58 626.46,158.46 626.64,158.34 626.76,158.22 626.94,158.04 627.06,157.92 627.18,157.8 627.3,157.62 
	627.42,157.5 627.48,157.32 627.6,157.14 627.66,156.96 627.72,156.78 627.84,156.6 627.84,156.42 627.9,156.18 627.96,155.94 
	627.96,155.76 628.02,155.52 628.02,155.22 628.02,154.98 628.02,154.74 628.02,154.44 627.96,154.14 627.9,153.84 627.9,153.54 
	627.84,153.24 627.78,152.88 627.66,152.52 627.6,152.16 627.48,151.8 627.36,151.44 627.24,151.02 627.12,150.6 627,150.18 
	626.82,149.76 616.8,122.22 616.62,121.74 616.44,121.26 616.2,120.84 616.02,120.42 615.78,120 615.54,119.58 615.3,119.16 
	615.06,118.74 614.82,118.38 614.52,118.02 614.28,117.66 613.98,117.3 613.68,116.94 613.32,116.58 613.02,116.28 612.66,115.98 
	612.36,115.68 612,115.38 611.64,115.08 611.22,114.78 610.86,114.54 610.44,114.24 610.08,114 609.66,113.76 609.24,113.52 
	608.82,113.34 608.34,113.1 607.92,112.92 607.44,112.68 606.96,112.5 606.48,112.32 606,112.14 605.52,112.02 605.04,111.84 
	604.5,111.66 604.02,111.54 603.48,111.42 602.94,111.3 602.4,111.18 601.86,111.06 601.32,110.94 600.78,110.82 600.18,110.76 
	599.64,110.64 599.04,110.58 598.44,110.46 597.84,110.4 597.24,110.34 596.64,110.28 596.04,110.22 595.38,110.16 594.78,110.16 
	594.12,110.1 593.52,110.04 592.86,110.04 592.2,109.98 591.54,109.98 590.88,109.98 590.22,109.92 589.56,109.92 588.9,109.92 
	588.18,109.92 587.52,109.92 586.8,109.92 585.42,109.98 584.04,109.98 582.6,110.04 581.16,110.1 579.66,110.16 578.22,110.22 
	576.72,110.28 575.22,110.34 573.72,110.46 572.16,110.52 570.66,110.64 569.1,110.7 567.54,110.82 565.98,110.94 564.36,111 
	562.8,111.12 561.18,111.18 559.62,111.3 558,111.36 556.38,111.48 554.76,111.54 553.08,111.6 551.46,111.66 549.84,111.72 
	548.16,111.78 546.54,111.84 544.86,111.9 543.18,111.9 541.5,111.96 539.82,111.96 538.14,111.96 536.46,111.96 337.62,111.96 
	337.62,120.72 277.38,120.72 277.38,111.96 249.72,111.96 "/>
<polyline class="st1" points="567.48,244.26 562.62,237 612.9,203.76 617.76,211.08 567.48,244.26 "/>
<path class="st1" d="M196.5,259.17c0-2.071-1.6789-3.75-3.75-3.75c-2.0711,0-3.75,1.679-3.75,3.75c0,2.0711,1.6789,3.75,3.75,3.75
	C194.8211,262.92,196.5,261.2411,196.5,259.17"/>
<path class="st1" d="M575.82,259.17c0-2.071-1.679-3.75-3.75-3.75s-3.75,1.679-3.75,3.75c0,2.0711,1.679,3.75,3.75,3.75
	S575.82,261.2411,575.82,259.17"/>
<polyline class="st1" points="312.84,205.86 314.88,214.38 256.38,228.66 254.28,220.14 253.14,220.44 252,220.68 250.86,220.92 
	249.72,221.16 248.58,221.34 247.5,221.52 246.36,221.7 245.28,221.88 244.2,222 243.12,222.12 242.04,222.24 241.02,222.3 
	239.94,222.42 238.92,222.42 237.84,222.48 236.82,222.48 235.8,222.48 234.78,222.48 233.82,222.48 232.8,222.42 231.84,222.36 
	230.88,222.3 229.86,222.18 228.9,222.06 228,221.94 227.04,221.82 226.08,221.64 225.18,221.46 224.22,221.28 223.32,221.1 
	222.42,220.86 221.52,220.62 220.62,220.38 219.78,220.08 218.88,219.78 218.04,219.48 217.14,219.18 216.3,218.82 215.46,218.46 
	214.62,218.1 213.78,217.74 213,217.32 212.16,216.9 211.38,216.48 210.54,216 209.76,215.58 208.98,215.1 208.2,214.56 
	207.42,214.08 206.64,213.54 205.92,213 205.14,212.4 204.42,211.86 203.7,211.26 202.98,210.66 202.26,210 201.54,209.34 
	200.82,208.68 200.1,208.02 199.44,207.3 198.72,206.58 198.06,205.86 197.4,205.08 196.74,204.36 196.08,203.52 195.42,202.74 
	194.76,201.9 194.16,201.06 193.5,200.22 192.9,199.32 192.3,198.42 191.7,197.52 191.1,196.56 190.5,195.6 189.9,194.64 
	189.3,193.68 188.76,192.66 188.16,191.58 187.62,190.56 187.08,189.48 186.54,188.4 186,187.26 185.46,186.12 184.98,184.98 
	184.74,184.38 184.44,183.78 184.2,183.18 183.96,182.58 183.72,181.98 183.48,181.32 183.24,180.72 183,180.12 182.76,179.46 
	182.52,178.8 182.28,178.2 182.04,177.54 181.8,176.88 181.56,176.22 181.32,175.56 181.14,174.9 180.9,174.18 180.66,173.52 
	180.42,172.8 180.24,172.14 180,171.42 179.82,170.7 179.58,169.98 179.4,169.26 179.16,168.54 178.98,167.82 178.74,167.1 
	178.56,166.32 178.38,165.6 178.14,164.82 177.96,164.04 177.78,163.32 177.6,162.54 177.42,161.76 177.18,160.92 177,160.14 
	176.82,159.36 176.64,158.52 176.46,157.74 176.28,156.9 176.16,156.06 175.98,155.22 175.8,154.38 175.62,153.54 175.44,152.7 
	175.32,151.8 175.14,150.96 174.96,150.06 174.84,149.22 174.66,148.32 174.54,147.42 174.36,146.52 174.24,145.62 174.06,144.66 
	173.94,143.76 173.82,142.8 173.64,141.9 173.52,140.94 173.4,139.98 173.28,139.02 173.16,138.06 173.04,137.1 172.92,136.08 
	172.8,135.12 172.68,134.1 172.56,133.14 172.44,132.12 172.32,131.1 172.2,130.08 172.08,129.06 172.02,127.98 171.9,126.96 
	171.78,125.88 171.72,124.86 171.6,123.78 171.54,122.7 171.42,121.62 171.36,120.54 171.24,119.4 171.18,118.32 171.12,117.18 
	171,116.1 170.94,114.96 170.88,113.82 170.82,112.68 170.7,111.54 170.64,110.4 170.58,109.2 134.58,109.2 "/>
<polyline class="st1" points="697.56,109.2 661.56,109.2 660.9,111.48 660.18,113.76 659.46,115.98 658.74,118.14 658.08,120.3 
	657.36,122.46 656.64,124.56 655.92,126.66 655.2,128.7 654.42,130.74 653.7,132.72 652.98,134.7 652.2,136.62 651.48,138.54 
	650.7,140.46 649.98,142.32 649.2,144.18 648.42,145.98 647.64,147.78 646.86,149.52 646.08,151.26 645.3,153 644.52,154.68 
	643.68,156.3 642.9,157.98 642.06,159.6 641.28,161.16 640.44,162.72 639.6,164.28 638.76,165.78 637.86,167.28 637.02,168.78 
	636.18,170.22 635.28,171.66 634.38,173.04 633.48,174.42 632.58,175.8 631.68,177.12 630.72,178.44 629.76,179.76 628.86,181.02 
	627.9,182.28 626.88,183.54 625.92,184.74 624.9,185.94 623.94,187.14 622.92,188.28 621.84,189.42 620.82,190.56 619.74,191.7 
	618.66,192.78 617.58,193.86 616.5,194.94 615.36,195.96 614.22,197.04 613.08,198.06 611.94,199.02 610.74,200.04 609.54,201 
	608.34,201.96 607.14,202.92 605.88,203.82 604.62,204.78 603.36,205.68 602.04,206.58 600.72,207.48 599.4,208.32 598.08,209.22 
	596.7,210.06 595.32,210.9 593.88,211.74 592.5,212.52 591,213.36 589.56,214.14 588.06,214.92 586.56,215.76 585.06,216.54 
	583.5,217.26 581.94,218.04 580.38,218.82 578.76,219.54 577.14,220.26 575.46,221.04 573.78,221.76 572.1,222.48 570.42,223.2 
	568.68,223.86 566.94,224.58 565.14,225.3 563.34,225.96 561.54,226.68 559.68,227.34 557.82,228.06 555.9,228.72 553.98,229.38 
	552.06,230.04 550.14,230.7 548.16,231.36 546.18,232.02 544.14,232.68 542.1,233.34 540,234 537.96,234.66 535.86,235.26 
	533.7,235.92 531.54,236.58 529.38,237.18 527.22,237.84 525,238.44 522.78,239.1 520.5,239.7 518.22,240.36 515.94,240.96 
	513.66,241.56 511.32,242.22 508.98,242.82 506.64,243.42 504.24,244.02 501.84,244.62 499.44,245.22 496.98,245.82 494.58,246.42 
	492.12,247.02 489.6,247.62 487.14,248.22 484.62,248.76 482.1,249.36 479.58,249.9 477.06,250.5 474.54,251.04 471.96,251.64 
	469.38,252.18 466.8,252.72 464.22,253.26 461.64,253.8 459,254.34 456.42,254.82 453.78,255.36 451.2,255.84 448.56,256.38 
	445.92,256.86 443.34,257.34 440.7,257.82 438.06,258.3 435.42,258.72 432.84,259.2 430.2,259.62 427.62,260.04 424.98,260.46 
	422.4,260.82 419.82,261.24 417.24,261.6 414.66,261.9 412.08,262.26 409.56,262.56 407.04,262.86 404.52,263.16 402.06,263.4 
	399.6,263.64 398.34,263.76 397.14,263.88 395.94,264 394.74,264.06 393.54,264.18 392.34,264.24 391.14,264.36 389.94,264.42 
	388.8,264.48 387.6,264.54 386.46,264.6 385.32,264.6 384.18,264.66 383.04,264.72 381.96,264.72 380.82,264.72 379.74,264.72 
	378.6,264.72 377.52,264.72 376.44,264.72 375.42,264.72 374.34,264.66 373.32,264.66 372.24,264.6 371.22,264.54 370.26,264.48 
	369.24,264.42 368.22,264.36 367.26,264.24 366.3,264.18 365.34,264.06 364.38,263.94 363.48,263.82 362.58,263.7 361.62,263.58 
	360.72,263.46 359.88,263.28 358.98,263.1 358.14,262.92 357.3,262.74 356.46,262.56 355.62,262.38 354.84,262.2 354.06,261.96 
	353.28,261.72 352.5,261.48 351.78,261.24 351,261 350.28,260.76 349.56,260.46 348.84,260.22 348.18,259.92 347.52,259.62 
	346.86,259.32 346.2,259.02 345.54,258.72 344.94,258.36 344.34,258.06 343.74,257.7 343.14,257.34 342.6,256.98 342,256.62 
	341.46,256.26 340.92,255.84 340.44,255.48 339.9,255.06 339.42,254.64 338.94,254.22 338.46,253.8 337.98,253.38 337.56,252.96 
	337.14,252.54 336.72,252.06 336.3,251.64 335.88,251.16 335.52,250.74 335.1,250.26 334.74,249.78 334.38,249.3 334.08,248.82 
	333.72,248.28 333.42,247.8 333.06,247.32 332.76,246.78 332.46,246.3 332.22,245.76 331.92,245.28 331.62,244.74 331.38,244.2 
	331.14,243.66 330.9,243.12 330.66,242.58 330.42,242.04 330.24,241.5 330,240.96 329.82,240.42 329.46,239.28 329.1,238.2 
	328.8,237.06 328.5,235.92 328.2,234.84 327.96,233.7 327.72,232.56 327.48,231.42 327.3,230.34 327.12,229.2 326.94,228.06 
	326.76,226.98 326.64,225.9 326.46,224.82 326.34,223.74 326.22,222.72 326.1,221.64 325.92,220.62 325.8,219.66 325.68,218.7 
	325.5,217.74 325.32,216.78 325.2,215.88 325.08,215.46 325.02,215.04 324.9,214.62 324.84,214.2 324.72,213.78 324.6,213.36 
	324.48,213 324.42,212.58 324.3,212.22 324.18,211.86 324,211.5 323.88,211.14 323.76,210.78 323.64,210.48 323.46,210.12 
	323.34,209.82 323.16,209.52 322.98,209.22 322.8,208.92 322.68,208.68 322.44,208.38 322.26,208.14 322.08,207.9 321.9,207.66 
	321.66,207.42 321.42,207.24 321.24,207 321,206.82 320.76,206.64 320.52,206.52 320.22,206.34 319.98,206.22 319.68,206.04 
	319.44,205.92 319.14,205.86 318.84,205.74 318.54,205.68 318.18,205.56 317.88,205.5 317.52,205.5 317.22,205.44 316.86,205.44 
	316.5,205.44 316.14,205.44 315.72,205.44 315.36,205.44 314.94,205.5 314.52,205.56 314.16,205.62 313.68,205.68 313.26,205.8 
	312.84,205.86 "/>
<polyline class="st1" points="134.58,109.2 134.76,112.38 134.94,115.56 135.12,118.68 135.36,121.8 135.54,124.86 135.78,127.92 
	135.96,130.92 136.2,133.92 136.44,136.86 136.68,139.8 136.92,142.68 137.16,145.56 137.46,148.38 137.7,151.2 138,153.96 
	138.3,156.72 138.6,159.42 138.9,162.12 139.2,164.76 139.56,167.4 139.86,169.98 140.22,172.56 140.52,175.08 140.88,177.6 
	141.24,180.06 141.6,182.52 142.02,184.92 142.38,187.32 142.8,189.66 143.16,192 143.58,194.34 144,196.62 144.42,198.84 
	144.84,201.06 145.32,203.28 145.74,205.44 146.22,207.54 146.64,209.64 147.12,211.74 147.6,213.78 148.08,215.82 148.62,217.8 
	149.1,219.78 149.58,221.7 150.12,223.62 150.66,225.48 151.2,227.34 151.74,229.2 152.28,231 152.82,232.8 153.42,234.54 
	153.96,236.28 154.56,237.96 155.16,239.64 155.76,241.26 156.36,242.88 156.96,244.5 157.56,246.06 158.22,247.62 158.82,249.12 
	159.48,250.62 160.14,252.12 160.8,253.56 161.46,255 162.12,256.38 162.84,257.76 163.5,259.08 164.22,260.46 164.94,261.72 
	165.66,263.04 166.38,264.3 167.1,265.5 167.82,266.76 168.6,267.9 169.38,269.1 170.1,270.24 170.88,271.38 171.66,272.46 
	172.44,273.54 173.28,274.62 174.06,275.64 174.9,276.66 175.68,277.68 176.52,278.64 177.36,279.6 178.2,280.5 179.04,281.46 
	179.94,282.36 180.78,283.2 181.68,284.04 182.58,284.88 183.42,285.72 184.32,286.5 185.28,287.28 186.18,288.06 187.08,288.78 
	188.04,289.5 189,290.22 189.9,290.94 190.86,291.6 191.82,292.26 192.84,292.86 193.8,293.52 194.76,294.12 195.78,294.72 
	196.8,295.26 197.82,295.8 198.84,296.34 199.86,296.88 200.88,297.36 201.9,297.9 202.98,298.38 204.06,298.8 205.08,299.28 
	206.16,299.7 207.24,300.12 208.32,300.54 209.46,300.9 210.54,301.26 211.68,301.68 212.76,301.98 213.9,302.34 215.04,302.64 
	216.18,303 217.38,303.3 218.52,303.54 219.66,303.84 220.86,304.08 222.06,304.32 223.2,304.56 224.4,304.8 225.66,305.04 
	226.86,305.22 228.06,305.46 229.32,305.64 230.52,305.82 231.78,305.94 233.04,306.12 234.3,306.24 235.56,306.42 238.08,306.66 
	240.66,306.84 243.3,307.02 245.94,307.14 248.58,307.26 251.28,307.32 254.04,307.38 256.8,307.44 259.56,307.44 262.38,307.38 
	265.2,307.38 268.08,307.26 270.96,307.2 273.84,307.08 276.78,306.96 279.78,306.84 282.78,306.66 285.78,306.48 288.84,306.3 
	291.9,306.12 294.96,305.94 298.08,305.7 301.26,305.52 304.38,305.28 307.56,305.04 310.8,304.86 313.98,304.62 317.28,304.38 
	320.52,304.14 323.82,303.9 327.12,303.66 330.42,303.42 333.78,303.18 337.14,302.94 340.5,302.7 343.92,302.46 347.34,302.22 
	350.76,301.98 354.18,301.74 357.66,301.5 361.08,301.32 364.56,301.08 371.52,300.66 378.54,300.24 385.62,299.88 392.64,299.46 
	406.8,298.74 420.96,298.02 428.04,297.6 435.06,297.24 442.08,296.82 445.56,296.64 449.04,296.4 452.46,296.16 455.94,295.92 
	459.36,295.68 462.78,295.44 466.2,295.2 469.56,294.9 472.98,294.66 476.28,294.36 479.64,294 482.94,293.7 486.24,293.34 
	489.54,292.98 492.78,292.62 496.02,292.2 499.2,291.78 502.44,291.36 505.56,290.94 508.74,290.46 511.8,289.98 514.92,289.44 
	517.98,288.9 521.04,288.36 524.04,287.76 526.98,287.16 529.98,286.56 532.86,285.9 535.8,285.24 538.68,284.52 541.5,283.8 
	544.32,283.08 547.08,282.3 549.84,281.46 552.6,280.68 555.3,279.84 557.94,278.94 560.64,278.04 563.22,277.08 565.8,276.18 
	568.38,275.16 570.9,274.14 573.42,273.12 575.88,272.1 578.34,270.96 580.74,269.88 583.14,268.74 585.48,267.54 587.82,266.4 
	590.1,265.14 592.38,263.88 594.66,262.62 596.88,261.3 599.04,259.98 601.26,258.66 603.36,257.28 605.46,255.84 607.56,254.4 
	609.66,252.96 611.64,251.46 613.68,249.96 615.66,248.4 617.58,246.84 619.56,245.22 621.42,243.6 623.34,241.92 625.2,240.24 
	627,238.56 628.8,236.82 630.6,235.08 632.34,233.28 634.08,231.42 635.82,229.62 637.5,227.76 639.18,225.84 640.8,223.92 
	642.42,222 644.04,220.02 645.6,217.98 647.16,216 648.72,213.9 650.22,211.86 651.72,209.76 653.22,207.6 654.66,205.44 
	656.1,203.28 657.54,201.06 658.92,198.84 660.36,196.62 661.68,194.34 663.06,192 664.38,189.72 665.7,187.32 667.02,184.98 
	668.28,182.58 669.54,180.18 670.8,177.72 672.06,175.26 673.26,172.74 674.46,170.22 675.66,167.7 676.8,165.12 678,162.54 
	679.14,159.96 680.28,157.32 681.36,154.68 682.5,151.98 683.58,149.28 684.66,146.58 685.74,143.82 686.82,141.06 687.84,138.3 
	688.86,135.48 689.88,132.66 690.9,129.78 691.86,126.9 692.88,124.02 693.84,121.08 694.8,118.14 695.7,115.2 696.66,112.2 
	697.56,109.2 "/>
<polyline class="st1" points="754.08,170.22 758.94,177.54 708.66,210.72 703.8,203.46 754.08,170.22 "/>
<path class="st1" d="M1125.12,155.25c0,2.0711,1.6788,3.75,3.75,3.75c2.071,0,3.75-1.6789,3.75-3.75c0-2.071-1.679-3.75-3.75-3.75
	C1126.7988,151.5,1125.12,153.179,1125.12,155.25"/>
<path class="st1" d="M745.8,155.25c0,2.0711,1.6789,3.75,3.75,3.75c2.071,0,3.75-1.6789,3.75-3.75c0-2.071-1.679-3.75-3.75-3.75
	C747.4789,151.5,745.8,153.179,745.8,155.25"/>
<polyline class="st1" points="624,305.28 660,305.28 660.66,303 661.38,300.78 662.1,298.56 662.82,296.34 663.48,294.18 
	664.2,292.08 664.92,289.98 665.64,287.88 666.42,285.84 667.14,283.8 667.86,281.76 668.58,279.84 669.36,277.86 670.08,275.94 
	670.86,274.08 671.58,272.16 672.36,270.36 673.14,268.56 673.92,266.76 674.7,264.96 675.48,263.22 676.26,261.54 677.04,259.86 
	677.88,258.18 678.66,256.56 679.5,254.94 680.28,253.32 681.12,251.76 681.96,250.26 682.8,248.7 683.7,247.2 684.54,245.76 
	685.44,244.32 686.28,242.88 687.18,241.5 688.08,240.12 688.98,238.74 689.88,237.36 690.84,236.04 691.8,234.78 692.7,233.46 
	693.66,232.2 694.68,231 695.64,229.74 696.66,228.54 697.62,227.4 698.7,226.2 699.72,225.06 700.74,223.92 701.82,222.84 
	702.9,221.7 703.98,220.62 705.06,219.6 706.2,218.52 707.34,217.5 708.48,216.48 709.62,215.46 710.82,214.5 712.02,213.54 
	713.22,212.58 714.42,211.62 715.68,210.66 716.94,209.76 718.2,208.86 719.52,207.96 720.84,207.06 722.16,206.16 723.48,205.32 
	724.86,204.48 726.24,203.64 727.68,202.8 729.12,201.96 730.56,201.18 732,200.34 733.5,199.56 735,198.78 736.5,198 
	738.06,197.22 739.62,196.5 741.18,195.72 742.8,194.94 744.42,194.22 746.1,193.5 747.78,192.78 749.46,192.06 751.14,191.34 
	752.88,190.62 754.68,189.9 756.42,189.24 758.22,188.52 760.02,187.86 761.88,187.14 763.74,186.48 765.66,185.82 767.58,185.1 
	769.5,184.44 771.42,183.78 773.4,183.12 775.44,182.46 777.42,181.8 779.46,181.14 781.56,180.54 783.6,179.88 785.7,179.22 
	787.86,178.56 790.02,177.96 792.18,177.3 794.34,176.7 796.56,176.04 798.78,175.44 801.06,174.78 803.34,174.18 805.62,173.52 
	807.9,172.92 810.24,172.32 812.58,171.72 814.92,171.06 817.32,170.46 819.72,169.86 822.12,169.26 824.58,168.66 826.98,168.06 
	829.44,167.46 831.96,166.92 834.42,166.32 836.94,165.72 839.46,165.18 841.98,164.58 844.5,164.04 847.08,163.44 849.6,162.9 
	852.18,162.36 854.76,161.82 857.34,161.28 859.92,160.74 862.56,160.2 865.14,159.66 867.78,159.18 870.36,158.64 873,158.16 
	875.64,157.68 878.22,157.2 880.86,156.72 883.5,156.24 886.14,155.76 888.72,155.34 891.36,154.92 894,154.5 896.58,154.08 
	899.16,153.66 901.74,153.3 904.32,152.94 906.9,152.58 909.48,152.22 912,151.92 914.52,151.62 917.04,151.38 919.5,151.08 
	922.02,150.84 923.22,150.72 924.42,150.6 925.62,150.54 926.88,150.42 928.08,150.36 929.22,150.24 930.42,150.18 931.62,150.12 
	932.7599,150.06 933.96,150 935.1,149.94 936.24,149.88 937.38,149.88 938.52,149.82 939.66,149.82 940.74,149.76 941.88,149.76 
	942.96,149.76 944.04,149.76 945.12,149.76 946.14,149.82 947.22,149.82 948.24,149.88 949.32,149.88 950.34,149.94 951.36,150 
	952.32,150.06 953.34,150.18 954.3,150.24 955.2599,150.36 956.22,150.42 957.18,150.54 958.08,150.66 959.04,150.78 959.94,150.96 
	960.84,151.08 961.68,151.26 962.58,151.38 963.42,151.56 964.2599,151.74 965.1,151.92 965.94,152.16 966.72,152.34 967.5,152.58 
	968.28,152.76 969.06,153 969.84,153.24 970.56,153.48 971.28,153.78 972,154.02 972.72,154.32 973.38,154.62 974.04,154.86 
	974.7,155.16 975.36,155.52 976.02,155.82 976.62,156.12 977.22,156.48 977.82,156.84 978.42,157.2 978.96,157.56 979.56,157.92 
	980.1,158.28 980.64,158.64 981.12,159.06 981.66,159.42 982.14,159.84 982.62,160.26 983.1,160.68 983.58,161.1 984,161.52 
	984.42,162 984.84,162.42 985.2599,162.9 985.68,163.32 986.04,163.8 986.46,164.28 986.82,164.76 987.18,165.24 987.54,165.72 
	987.84,166.2 988.2,166.68 988.5,167.22 988.8,167.7 989.1,168.24 989.4,168.72 989.64,169.26 989.94,169.8 990.18,170.34 
	990.42,170.82 990.66,171.36 990.9,171.9 991.14,172.44 991.32,172.98 991.56,173.52 991.74,174.12 992.1,175.2 992.46,176.34 
	992.82,177.42 993.06,178.56 993.36,179.7 993.6,180.84 993.84,181.92 994.08,183.06 994.2599,184.2 994.44,185.34 994.62,186.42 
	994.8,187.56 994.92,188.64 995.1,189.72 995.22,190.74 995.34,191.82 995.52,192.84 995.64,193.86 995.7599,194.88 995.94,195.84 
	996.06,196.8 996.24,197.7 996.36,198.6 996.48,199.08 996.54,199.5 996.66,199.92 996.78,200.34 996.84,200.76 996.96,201.12 
	997.08,201.54 997.2,201.9 997.32,202.32 997.44,202.68 997.56,203.04 997.68,203.4 997.8,203.7 997.92,204.06 998.1,204.36 
	998.22,204.72 998.4,205.02 998.58,205.32 998.7599,205.56 998.94,205.86 999.12,206.1 999.3,206.4 999.48,206.64 999.72,206.88 
	999.9,207.06 1000.14,207.3 1000.32,207.48 1000.56,207.66 1000.8,207.84 1001.1,208.02 1001.34,208.2 1001.58,208.32 
	1001.88,208.44 1002.12,208.56 1002.42,208.68 1002.72,208.8 1003.02,208.86 1003.38,208.92 1003.68,208.98 1004.04,209.04 
	1004.34,209.04 1004.7,209.1 1005.06,209.1 1005.42,209.1 1005.84,209.1 1006.2,209.04 1006.62,209.04 1007.04,208.98 
	1007.46,208.92 1007.88,208.8 1008.3,208.74 1008.72,208.62 1006.68,200.1 1065.1799,185.88 1067.28,194.34 1068.4199,194.1 
	1069.5599,193.86 1070.7,193.62 1071.84,193.38 1072.98,193.14 1074.0599,192.96 1075.2,192.78 1076.28,192.66 1077.36,192.48 
	1078.4399,192.36 1079.52,192.3 1080.6,192.18 1081.62,192.12 1082.64,192.06 1083.72,192 1084.74,192 1085.76,192 1086.78,192 
	1087.74,192.06 1088.76,192.06 1089.72,192.18 1090.74,192.24 1091.7,192.3 1092.66,192.42 1093.62,192.54 1094.52,192.72 
	1095.48,192.84 1096.38,193.02 1097.34,193.26 1098.24,193.44 1099.14,193.68 1100.0399,193.92 1100.9399,194.16 1101.78,194.46 
	1102.6799,194.7 1103.58,195 1104.4199,195.36 1105.26,195.66 1106.1,196.02 1106.9399,196.38 1107.78,196.8 1108.62,197.16 
	1109.4,197.58 1110.24,198.06 1111.02,198.48 1111.7999,198.96 1112.58,199.44 1113.36,199.92 1114.14,200.46 1114.9199,201 
	1115.64,201.54 1116.4199,202.08 1117.14,202.68 1117.86,203.28 1118.58,203.88 1119.2999,204.54 1120.02,205.14 1120.74,205.8 
	1121.46,206.52 1122.12,207.18 1122.84,207.9 1123.5,208.68 1124.16,209.4 1124.8199,210.18 1125.48,210.96 1126.14,211.8 
	1126.7999,212.58 1127.4,213.42 1128.0599,214.32 1128.66,215.16 1129.26,216.06 1129.9199,217.02 1130.52,217.92 1131.0599,218.88 
	1131.66,219.84 1132.26,220.86 1132.7999,221.88 1133.4,222.9 1133.9399,223.98 1134.48,225.06 1135.02,226.14 1135.5599,227.28 
	1136.1,228.42 1136.58,229.56 1136.88,230.16 1137.12,230.76 1137.36,231.36 1137.6,231.96 1137.84,232.56 1138.08,233.16 
	1138.3199,233.76 1138.5599,234.42 1138.7999,235.02 1139.0399,235.68 1139.28,236.34 1139.52,237 1139.76,237.66 1140,238.32 
	1140.24,238.98 1140.48,239.64 1140.66,240.3 1140.9,241.02 1141.14,241.68 1141.3199,242.4 1141.5599,243.06 1141.74,243.78 
	1141.98,244.5 1142.22,245.22 1142.4,245.94 1142.58,246.72 1142.8199,247.44 1143,248.16 1143.1799,248.94 1143.4199,249.66 
	1143.6,250.44 1143.78,251.22 1143.96,252 1144.2,252.78 1144.38,253.56 1144.5599,254.34 1144.74,255.18 1144.9199,255.96 
	1145.1,256.8 1145.28,257.64 1145.46,258.42 1145.58,259.26 1145.76,260.1 1145.9399,261 1146.12,261.84 1146.24,262.68 
	1146.4199,263.58 1146.6,264.42 1146.72,265.32 1146.9,266.22 1147.02,267.12 1147.2,268.02 1147.3199,268.92 1147.5,269.82 
	1147.62,270.78 1147.74,271.68 1147.9199,272.64 1148.0399,273.6 1148.16,274.5 1148.28,275.46 1148.4,276.48 1148.52,277.44 
	1148.7,278.4 1148.8199,279.42 1148.9399,280.38 1149,281.4 1149.12,282.42 1149.24,283.44 1149.36,284.46 1149.48,285.48 
	1149.5399,286.5 1149.66,287.58 1149.78,288.6 1149.84,289.68 1149.96,290.76 1150.08,291.84 1150.14,292.92 1150.2,294 
	1150.3199,295.08 1150.38,296.22 1150.5,297.3 1150.5599,298.44 1150.62,299.58 1150.6799,300.66 1150.74,301.86 1150.86,303 
	1150.9199,304.14 1150.98,305.28 1186.98,305.28 1186.7999,302.1 1186.62,298.92 1186.4399,295.8 1186.2,292.68 1186.02,289.62 
	1185.84,286.56 1185.6,283.56 1185.36,280.56 1185.12,277.62 1184.88,274.74 1184.64,271.8 1184.4,268.98 1184.1,266.1 
	1183.86,263.34 1183.5599,260.52 1183.26,257.82 1182.96,255.06 1182.66,252.42 1182.36,249.72 1182,247.14 1181.7,244.56 
	1181.34,241.98 1181.0399,239.4 1180.6799,236.94 1180.3199,234.42 1179.96,232.02 1179.5399,229.56 1179.1799,227.16 
	1178.76,224.82 1178.4,222.48 1177.98,220.2 1177.5599,217.92 1177.14,215.64 1176.72,213.48 1176.24,211.26 1175.8199,209.1 
	1175.34,206.94 1174.9199,204.84 1174.4399,202.8 1173.96,200.76 1173.48,198.72 1173,196.74 1172.46,194.76 1171.98,192.84 
	1171.4399,190.92 1170.9,189 1170.36,187.14 1169.8199,185.34 1169.28,183.54 1168.74,181.74 1168.2,180 1167.6,178.26 1167,176.58 
	1166.4,174.9 1165.7999,173.22 1165.2,171.6 1164.6,170.04 1164,168.42 1163.34,166.92 1162.74,165.36 1162.08,163.86 
	1161.4199,162.42 1160.76,160.98 1160.1,159.54 1159.4399,158.16 1158.72,156.78 1158.0599,155.4 1157.34,154.08 1156.62,152.76 
	1155.9,151.5 1155.1799,150.24 1154.46,148.98 1153.74,147.78 1152.96,146.58 1152.24,145.44 1151.46,144.3 1150.6799,143.16 
	1149.9,142.02 1149.12,140.94 1148.28,139.92 1147.5,138.84 1146.66,137.88 1145.88,136.86 1145.0399,135.9 1144.2,134.94 
	1143.36,133.98 1142.52,133.08 1141.62,132.18 1140.78,131.28 1139.88,130.44 1139.0399,129.6 1138.14,128.82 1137.24,127.98 
	1136.34,127.2 1135.38,126.48 1134.48,125.7 1133.52,124.98 1132.62,124.26 1131.66,123.6 1130.7,122.94 1129.74,122.28 
	1128.78,121.62 1127.76,121.02 1126.7999,120.42 1125.78,119.82 1124.76,119.28 1123.7999,118.68 1122.78,118.14 1121.7,117.66 
	1120.6799,117.12 1119.66,116.64 1118.58,116.16 1117.5599,115.68 1116.48,115.26 1115.4,114.84 1114.3199,114.42 1113.24,114 
	1112.1,113.58 1111.02,113.22 1109.88,112.86 1108.7999,112.5 1107.66,112.2 1106.52,111.84 1105.38,111.54 1104.24,111.24 
	1103.0399,110.94 1101.9,110.7 1100.7,110.4 1099.5,110.16 1098.36,109.92 1097.16,109.68 1095.96,109.5 1094.7,109.26 
	1093.5,109.08 1092.2999,108.9 1091.0399,108.72 1089.78,108.54 1088.52,108.42 1087.26,108.24 1086,108.12 1083.48,107.88 
	1080.9,107.64 1078.26,107.52 1075.62,107.34 1072.98,107.22 1070.28,107.16 1067.52,107.1 1064.8199,107.1 1062,107.1 
	1059.1799,107.1 1056.36,107.16 1053.48,107.22 1050.6,107.34 1047.72,107.4 1044.78,107.52 1041.78,107.7 1038.78,107.82 
	1035.78,108 1032.72,108.18 1029.66,108.36 1026.6,108.6 1023.48,108.78 1020.36,109.02 1017.18,109.2 1014,109.44 
	1010.7599,109.68 1007.58,109.92 1004.34,110.16 1001.04,110.4 997.74,110.64 994.44,110.88 991.14,111.12 987.78,111.36 
	984.42,111.6 981.06,111.84 977.64,112.08 974.22,112.32 970.8,112.56 967.38,112.74 963.96,112.98 960.48,113.22 957,113.4 
	950.04,113.82 943.02,114.24 935.94,114.66 928.92,115.02 914.76,115.8 900.6,116.52 893.52,116.88 886.5,117.3 879.48,117.66 
	876,117.9 872.52,118.08 869.1,118.32 865.62,118.56 862.2,118.8 858.78,119.04 855.36,119.34 852,119.58 848.64,119.88 
	845.28,120.18 841.92,120.48 838.62,120.84 835.32,121.14 832.02,121.5 828.78,121.92 825.54,122.28 822.36,122.7 819.18,123.12 
	816,123.6 812.88,124.08 809.76,124.56 806.64,125.04 803.58,125.58 800.58,126.18 797.52,126.72 794.58,127.32 791.58,127.98 
	788.7,128.58 785.76,129.3 782.88,129.96 780.06,130.68 777.24,131.46 774.48,132.24 771.72,133.02 768.96,133.86 766.26,134.7 
	763.62,135.6 760.98,136.5 758.34,137.4 755.76,138.36 753.18,139.32 750.66,140.34 748.14,141.36 745.68,142.44 743.22,143.52 
	740.82,144.66 738.42,145.8 736.08,146.94 733.74,148.14 731.46,149.34 729.18,150.6 726.9,151.86 724.68,153.18 722.52,154.5 
	720.36,155.88 718.2,157.26 716.1,158.64 714,160.08 711.96,161.58 709.92,163.08 707.88,164.58 705.9,166.14 703.98,167.7 
	702,169.32 700.14,170.94 698.22,172.56 696.36,174.24 694.56,175.98 692.76,177.72 690.96,179.46 689.22,181.26 687.48,183.06 
	685.74,184.92 684.06,186.78 682.38,188.7 680.76,190.62 679.14,192.54 677.52,194.52 675.96,196.5 674.4,198.54 672.84,200.58 
	671.34,202.68 669.84,204.78 668.34,206.88 666.9,209.04 665.46,211.2 664.02,213.42 662.64,215.64 661.26,217.92 659.88,220.2 
	658.5,222.48 657.18,224.82 655.86,227.16 654.54,229.56 653.28,231.96 652.02,234.36 650.76,236.82 649.56,239.28 648.3,241.74 
	647.1,244.26 645.9,246.84 644.76,249.36 643.56,251.94 642.42,254.58 641.28,257.22 640.2,259.86 639.06,262.5 637.98,265.2 
	636.9,267.96 635.82,270.66 634.8,273.42 633.72,276.24 632.7,279.06 631.68,281.88 630.66,284.7 629.7,287.58 628.74,290.52 
	627.72,293.4 626.76,296.34 625.86,299.34 624.9,302.28 624,305.28 "/>
<polyline class="st0" points="1061.9399,335.34 1062,335.82 1062.12,336.24 1062.2999,336.66 1062.6,336.96 1062.96,337.26 
	1063.3199,337.5 1063.74,337.62 1064.22,337.74 1064.64,337.68 1065.0599,337.56 1065.48,337.38 "/>
<polyline class="st0" points="1066.6799,335.34 1066.6799,335.1 1066.5599,334.68 1066.38,334.26 1066.14,333.9 1065.84,333.54 
	1065.48,333.3 1065.0599,333.12 1064.64,333 1064.22,333 1063.74,333.06 1063.3199,333.18 1063.14,333.3 "/>
<polyline class="st0" points="1098.24,357.18 1098.2999,357.6 1098.4199,358.08 1098.66,358.44 1098.9,358.8 1099.26,359.1 
	1099.6799,359.34 1100.1,359.46 1100.52,359.52 1100.9399,359.52 1101.4199,359.4 1101.84,359.22 "/>
<polyline class="st0" points="1102.98,357.18 1102.98,356.94 1102.9199,356.52 1102.74,356.1 1102.5,355.74 1102.2,355.38 
	1101.84,355.14 1101.4199,354.96 1100.9399,354.84 1100.52,354.84 1100.1,354.9 1099.6799,355.02 1099.4399,355.14 "/>
<polyline class="st0" points="1059,355.08 1059.0599,355.5 1059.1799,355.98 1059.36,356.34 1059.66,356.7 1059.96,357 
	1060.38,357.24 1060.7999,357.36 1061.22,357.42 1061.7,357.42 1062.12,357.3 1062.5399,357.12 "/>
<polyline class="st0" points="1063.6799,355.08 1063.6799,354.84 1063.62,354.42 1063.4399,354 1063.2,353.64 1062.9,353.28 
	1062.5399,353.04 1062.12,352.86 1061.7,352.74 1061.22,352.74 1060.7999,352.8 1060.38,352.92 1060.14,353.04 "/>
<polyline class="st0" points="1082.16,368.94 1082.22,369.36 1082.34,369.84 1082.58,370.2 1082.8199,370.56 1083.1799,370.86 
	1083.5399,371.1 1083.96,371.22 1084.4399,371.28 1084.86,371.28 1085.34,371.16 1085.7,370.98 "/>
<polyline class="st0" points="1086.9,368.94 1086.9,368.7 1086.78,368.28 1086.66,367.86 1086.4199,367.5 1086.0599,367.14 
	1085.7,366.9 1085.34,366.72 1084.86,366.6 1084.4399,366.6 1083.96,366.66 1083.5399,366.78 1083.36,366.9 "/>
<polyline class="st0" points="1063.2,373.74 1063.26,374.16 1063.38,374.64 1063.5599,375 1063.86,375.36 1064.22,375.66 
	1064.58,375.9 1065,376.02 1065.48,376.08 1065.9,376.08 1066.3199,375.96 1066.74,375.78 "/>
<polyline class="st0" points="1067.9399,373.74 1067.9399,373.5 1067.8199,373.08 1067.64,372.66 1067.4,372.3 1067.1,371.94 
	1066.74,371.7 1066.3199,371.52 1065.9,371.4 1065.48,371.4 1065,371.46 1064.58,371.58 1064.4,371.7 "/>
<line class="st0" x1="1120.14" y1="339.06" x2="1111.9199" y2="342.06"/>
<line class="st0" x1="1107.78" y1="305.04" x2="1109.9399" y2="310.98"/>
<line class="st0" x1="1111.08" y1="314.1" x2="1113.36" y2="320.46"/>
<line class="st0" x1="1114.5599" y1="323.64" x2="1116.84" y2="330"/>
<line class="st0" x1="1117.98" y1="333.18" x2="1120.14" y2="339.06"/>
<line class="st0" x1="1099.5599" y1="308.04" x2="1107.78" y2="305.04"/>
<line class="st0" x1="1111.9199" y1="342.06" x2="1109.76" y2="336.12"/>
<line class="st0" x1="1108.62" y1="333" x2="1106.28" y2="326.64"/>
<line class="st0" x1="1105.14" y1="323.46" x2="1102.86" y2="317.1"/>
<line class="st0" x1="1101.66" y1="313.92" x2="1099.5599" y2="308.04"/>
<polyline class="st0" points="1057.2,382.38 1056.96,382.08 1056.66,381.84 1056.36,381.6 1056.0599,381.36 "/>
<polyline class="st0" points="1067.16,306.66 1067.64,306.42 1068.12,306.18 1068.6,305.94 1069.08,305.7 1069.5599,305.46 
	1070.1,305.22 1070.64,304.98 1071.1799,304.8 1071.72,304.56 1072.3199,304.38 1072.86,304.14 1073.46,303.96 1074.0599,303.78 
	1074.4199,303.66 "/>
<polyline class="st0" points="1077.66,302.7 1077.96,302.64 1078.6799,302.4 1079.4,302.22 1080.12,302.1 1080.84,301.92 
	1081.5599,301.74 1082.34,301.56 1083.12,301.38 1083.9,301.2 1084.26,301.14 "/>
<polyline class="st0" points="1087.5599,300.48 1087.98,300.42 1088.8199,300.24 1089.66,300.06 1090.5,299.94 1091.34,299.76 
	1092.24,299.64 1093.14,299.46 1094.0399,299.34 1094.22,299.34 "/>
<polyline class="st0" points="1097.52,298.86 1097.64,298.8 1098.5399,298.68 1099.4399,298.56 1100.4,298.5 1101.2999,298.38 
	1102.2,298.26 1103.16,298.2 1104.0599,298.08 1104.24,298.08 "/>
<polyline class="st0" points="1107.6,297.78 1107.78,297.78 1108.6799,297.72 1109.64,297.72 1110.5399,297.66 1111.4399,297.66 
	1112.34,297.6 1113.24,297.6 1114.14,297.6 1114.38,297.6 "/>
<polyline class="st0" points="1117.74,297.72 1118.46,297.78 1119.2999,297.84 1120.14,297.9 1120.98,298.02 1121.76,298.08 
	1122.5399,298.2 1123.3199,298.32 1124.1,298.5 1124.4,298.56 "/>
<polyline class="st0" points="1127.7,299.4 1128.4199,299.64 1129.08,299.82 1129.38,300 1129.74,300.12 1130.0399,300.24 
	1130.34,300.36 1130.64,300.48 1130.9399,300.66 1131.24,300.78 1131.5399,300.96 1131.84,301.08 1132.08,301.26 1132.38,301.44 
	1132.62,301.62 1132.9199,301.74 1133.16,301.92 1133.46,302.1 1133.7,302.28 1133.7,302.34 "/>
<polyline class="st0" points="1136.16,304.62 1136.28,304.8 1136.46,305.04 1136.64,305.28 1136.8199,305.52 1137,305.76 
	1137.12,306 1137.2999,306.24 1137.4199,306.54 1137.6,306.78 1137.72,307.08 1137.84,307.32 1137.96,307.62 1138.08,307.86 
	1138.2,308.16 1138.3199,308.46 1138.38,308.76 1138.5,309.06 1138.5599,309.36 1138.6799,309.66 1138.74,309.96 1138.7999,310.26 
	1138.86,310.56 1138.9199,310.74 "/>
<polyline class="st0" points="1139.22,314.1 1139.22,314.22 1139.22,314.58 1139.22,314.94 1139.22,315.3 1139.16,315.66 
	1139.16,316.02 1139.1,316.38 1139.1,316.8 1139.0399,317.16 1138.98,317.52 1138.9199,317.88 1138.86,318.3 1138.7999,318.66 
	1138.6799,319.44 1138.5,320.22 1138.38,320.76 "/>
<polyline class="st0" points="1137.48,324 1137.4199,324.3 1137.12,325.14 1136.88,325.98 1136.52,326.82 1136.22,327.66 
	1135.86,328.5 1135.5,329.34 1135.14,330.24 1135.08,330.36 "/>
<polyline class="st0" points="1133.7,333.36 1133.52,333.66 1133.1,334.56 1132.62,335.4 1132.2,336.3 1131.72,337.14 
	1131.1799,337.98 1130.7,338.88 1130.46,339.3 "/>
<polyline class="st0" points="1128.66,342.18 1128.6,342.3 1128.0599,343.14 1127.52,344.04 1126.9199,344.88 1126.3199,345.72 
	1125.78,346.56 1125.1799,347.4 1124.88,347.76 "/>
<polyline class="st0" points="1122.84,350.46 1122.72,350.64 1122.0599,351.48 1121.46,352.26 1120.7999,353.04 1120.14,353.88 
	1119.48,354.66 1118.8199,355.44 1118.58,355.68 "/>
<polyline class="st0" points="1116.36,358.2 1116.12,358.44 1115.46,359.22 1114.74,359.94 1114.08,360.66 1113.36,361.38 
	1112.64,362.1 1111.98,362.76 1111.6799,363.06 "/>
<polyline class="st0" points="1109.22,365.4 1109.1,365.52 1108.38,366.12 1107.66,366.78 1106.9399,367.44 1106.22,368.04 
	1105.5,368.7 1104.78,369.3 1104.12,369.84 "/>
<polyline class="st0" points="1101.48,371.94 1101.12,372.18 1100.4,372.72 1099.6799,373.26 1098.96,373.8 1098.24,374.28 
	1097.46,374.82 1096.74,375.3 1096.02,375.78 1095.96,375.84 "/>
<polyline class="st0" points="1093.08,377.64 1092.4199,378.06 1091.7,378.48 1090.98,378.84 1090.26,379.26 1089.5399,379.62 
	1088.8199,380.04 1088.1,380.4 1087.38,380.7 1087.2,380.82 "/>
<polyline class="st0" points="1084.08,382.26 1083.9,382.32 1083.24,382.56 1082.52,382.86 1081.86,383.1 1081.2,383.34 
	1080.48,383.58 1079.8199,383.82 1079.16,384.06 1078.5,384.24 1077.84,384.42 1077.72,384.48 "/>
<polyline class="st0" points="1074.4199,385.2 1074,385.32 1073.34,385.38 1072.74,385.5 1072.14,385.56 1071.5399,385.68 
	1070.9399,385.74 1070.34,385.74 1069.74,385.8 1069.14,385.8 1068.5399,385.8 1068,385.8 1067.76,385.8 "/>
<polyline class="st0" points="1064.4,385.44 1064.16,385.44 1063.62,385.32 1063.14,385.2 1062.6,385.08 1062.12,384.9 
	1061.64,384.78 1061.16,384.6 1060.6799,384.42 1060.2,384.18 1059.78,383.94 1059.2999,383.76 1058.88,383.52 1058.46,383.22 
	1058.0399,382.98 1057.62,382.68 1057.2,382.38 "/>
<polyline class="st1" points="770.34,500.7 774.72,508.32 826.92,478.2 822.54,470.58 770.34,500.7 "/>
<polyline class="st1" points="893.7,429.48 898.08,437.1 950.28,406.98 945.9,399.36 893.7,429.48 "/>
<polyline class="st1" points="1020.72,388.92 772.44,532.26 772.08,532.5 771.72,532.68 771.36,532.86 771,533.1 770.64,533.28 
	770.34,533.4 769.98,533.58 769.68,533.76 769.38,533.88 769.08,534.06 768.78,534.18 768.48,534.3 768.18,534.42 767.88,534.54 
	767.64,534.66 767.34,534.72 767.1,534.84 766.86,534.9 766.56,535.02 766.32,535.08 766.08,535.14 765.84,535.14 765.6,535.2 
	765.42,535.26 765.18,535.26 764.94,535.32 764.76,535.32 764.52,535.32 764.34,535.32 764.16,535.26 763.92,535.26 763.74,535.2 
	763.56,535.2 763.38,535.14 763.2,535.08 763.02,535.02 762.84,534.9 762.72,534.84 762.54,534.72 762.36,534.6 762.24,534.48 
	762.06,534.36 761.94,534.18 761.76,534.06 761.64,533.88 761.46,533.7 761.34,533.52 761.22,533.28 761.1,533.04 760.98,532.8 
	760.8,532.56 760.68,532.32 760.56,532.02 760.5,531.72 760.38,531.42 760.26,531.12 760.14,530.76 760.02,530.4 759.96,530.04 
	759.84,529.68 759.78,529.26 759.66,528.84 759.6,528.42 759.48,527.94 754.38,499.08 754.32,498.54 754.26,498.06 754.2,497.58 
	754.2,497.1 754.14,496.62 754.14,496.14 754.14,495.66 754.2,495.24 754.2,494.76 754.26,494.28 754.32,493.8 754.38,493.38 
	754.5,492.9 754.62,492.48 754.74,492.06 754.86,491.58 754.98,491.16 755.16,490.74 755.34,490.32 755.52,489.84 755.7,489.42 
	755.94,489 756.12,488.58 756.36,488.22 756.66,487.8 756.9,487.38 757.14,486.96 757.44,486.54 757.74,486.18 758.04,485.76 
	758.4,485.4 758.7,484.98 759.06,484.56 759.42,484.2 759.78,483.84 760.14,483.42 760.56,483.06 760.92,482.7 761.34,482.28 
	761.76,481.92 762.18,481.56 762.6,481.2 763.08,480.84 763.5,480.48 763.98,480.12 764.46,479.76 764.94,479.4 765.42,479.04 
	765.9,478.68 766.38,478.32 766.92,477.96 767.46,477.6 767.94,477.24 768.48,476.88 769.02,476.52 769.62,476.22 770.16,475.86 
	770.7,475.5 771.3,475.14 771.84,474.84 772.44,474.48 773.04,474.12 773.64,473.82 774.24,473.46 775.44,472.8 776.7,472.08 
	777.96,471.42 779.22,470.76 780.54,470.04 781.8,469.38 783.12,468.72 784.5,468 785.82,467.34 787.2,466.62 788.58,465.96 
	789.96,465.24 791.4,464.58 792.78,463.86 794.22,463.14 795.6,462.42 797.04,461.7 798.48,460.98 799.92,460.26 801.36,459.54 
	802.8,458.82 804.24,458.04 805.74,457.26 807.18,456.54 808.62,455.76 810.12,454.92 811.56,454.14 813,453.36 814.5,452.52 
	815.94,451.74 817.44,450.9 818.88,450.06 991.08,350.64 995.46,358.2 1047.66,328.08 1043.28,320.52 1067.16,306.66 1066.74,306.9 
	1066.38,307.2 1065.96,307.44 1065.6,307.68 1065.24,307.98 1064.8199,308.22 1064.46,308.52 1064.1,308.82 1063.7999,309.12 
	1063.4399,309.42 1063.08,309.72 1062.78,310.08 1062.48,310.38 1062.12,310.74 1061.8199,311.1 1061.52,311.46 1061.22,311.88 
	1060.9199,312.24 1060.62,312.66 1060.3199,313.02 1060.08,313.44 1059.78,313.92 1059.5399,314.34 1059.24,314.76 1059,315.24 
	1058.7,315.72 1058.46,316.2 1058.16,316.68 1057.9199,317.22 1057.6799,317.76 1057.4399,318.24 1057.2,318.78 1056.96,319.38 
	1056.72,319.92 1056.48,320.52 1056.24,321.06 1056,321.66 1055.76,322.26 1055.52,322.86 1055.34,323.52 1055.1,324.12 
	1054.86,324.78 1054.6799,325.44 1054.4399,326.1 1054.26,326.76 1054.02,327.42 1053.84,328.14 1053.66,328.8 1053.4199,329.52 
	1053.24,330.18 1053.0599,330.9 1052.88,331.62 1052.7,332.34 1052.52,333.06 1052.34,333.84 1052.16,334.56 1052.0399,335.34 
	1051.86,336.06 1051.6799,336.84 1051.5599,337.56 1051.26,339.12 1050.96,340.68 1050.72,342.18 1050.48,343.74 1050.2999,345.36 
	1050.0599,346.92 1049.88,348.48 1049.8199,349.26 1049.76,350.04 1049.7,350.82 1049.64,351.6 1049.58,352.38 1049.52,353.16 
	1049.46,353.88 1049.46,354.66 1049.4,355.44 1049.4,356.22 1049.34,356.94 1049.34,357.72 1049.34,358.44 1049.34,359.22 
	1049.34,359.94 1049.4,360.66 1049.4,361.38 1049.46,362.1 1049.46,362.82 1049.52,363.48 1049.58,364.2 1049.64,364.86 
	1049.7,365.58 1049.8199,366.24 1049.88,366.9 1050,367.56 1050.0599,368.16 1050.1799,368.82 1050.2999,369.42 1050.4199,370.08 
	1050.5399,370.68 1050.72,371.22 1050.84,371.82 1051.02,372.42 1051.2,372.96 1051.38,373.5 1051.5599,374.04 1051.74,374.58 
	1051.98,375.06 1052.16,375.6 1052.4,376.08 1052.64,376.56 1052.88,377.04 1053.12,377.46 1053.36,377.94 1053.66,378.36 
	1053.9,378.78 1054.2,379.14 1054.5,379.56 1054.7999,379.92 1055.1,380.34 1055.4,380.64 1055.7,381 1056.0599,381.36 
	1055.76,381.12 1055.46,380.88 1055.1,380.7 1054.7999,380.52 1054.4399,380.34 1054.14,380.16 1053.78,379.98 1053.4199,379.86 
	1053.0599,379.74 1052.7,379.62 1052.28,379.5 1051.9199,379.38 1051.5,379.26 1051.08,379.2 1050.66,379.14 1050.24,379.08 
	1049.8199,379.02 1049.4,378.96 1048.98,378.96 1048.5,378.9 1048.08,378.9 1047.6,378.9 1047.12,378.96 1046.64,378.96 
	1046.16,379.02 1045.62,379.02 1045.14,379.08 1044.6,379.2 1044.12,379.26 1043.58,379.32 1043.0399,379.44 1042.5,379.56 
	1041.9,379.68 1041.36,379.8 1040.8199,379.98 1040.22,380.1 1039.62,380.28 1039.02,380.46 1038.4199,380.64 1037.8199,380.88 
	1037.22,381.06 1036.5599,381.3 1035.96,381.54 1035.2999,381.78 1034.64,382.02 1033.98,382.26 1033.3199,382.56 1032.66,382.86 
	1031.9399,383.16 1031.28,383.46 1030.5599,383.76 1029.84,384.12 1029.12,384.42 1028.4,384.78 1027.6799,385.14 1026.96,385.56 
	1026.1799,385.92 1025.46,386.34 1024.6799,386.7 1023.9,387.12 1023.12,387.54 1022.34,388.02 1021.56,388.44 1020.72,388.92 "/>
<polyline class="st1" points="1188.9,104.88 36.9,104.88 36.9,680.88 1188.9,680.88 1188.9,104.88 "/>
<polyline class="st0" points="954.78,299.52 954.72,299.94 954.6,300.42 954.42,300.78 954.12,301.14 953.7599,301.44 953.4,301.68 
	952.98,301.8 952.5,301.86 952.08,301.86 951.66,301.74 951.24,301.56 "/>
<polyline class="st0" points="950.04,299.52 950.04,299.28 950.16,298.86 950.28,298.44 950.58,298.08 950.88,297.72 951.24,297.48 
	951.66,297.3 952.08,297.18 952.5,297.18 952.98,297.24 953.4,297.36 953.58,297.48 "/>
<polyline class="st0" points="973.32,261.42 973.32,261.9 973.2,262.32 972.96,262.68 972.72,263.04 972.36,263.34 971.94,263.58 
	971.52,263.7 971.1,263.76 970.68,263.76 970.2,263.64 969.78,263.46 "/>
<polyline class="st0" points="968.64,261.42 968.64,261.18 968.7,260.76 968.88,260.34 969.12,259.98 969.42,259.62 969.78,259.38 
	970.2,259.2 970.68,259.08 971.1,259.08 971.52,259.14 971.94,259.26 972.18,259.38 "/>
<polyline class="st0" points="974.7,300.72 974.64,301.2 974.52,301.62 974.28,301.98 974.04,302.34 973.68,302.64 973.32,302.88 
	972.9,303 972.42,303.12 972,303.06 971.52,302.94 971.16,302.76 971.1,302.76 "/>
<polyline class="st0" points="969.96,300.72 969.96,300.48 970.08,300.06 970.2,299.64 970.44,299.28 970.8,298.92 971.16,298.68 
	971.52,298.5 972,298.38 972.42,298.38 972.9,298.44 973.32,298.56 973.5,298.68 "/>
<polyline class="st0" points="986.46,276.42 986.4,276.9 986.28,277.32 986.1,277.68 985.8,278.04 985.5,278.34 985.08,278.58 
	984.66,278.7 984.24,278.76 983.7599,278.76 983.34,278.64 982.92,278.46 "/>
<polyline class="st0" points="981.78,276.42 981.78,276.18 981.84,275.76 982.02,275.34 982.2599,274.98 982.56,274.62 
	982.92,274.38 983.34,274.2 983.7599,274.08 984.24,274.08 984.66,274.14 985.08,274.26 985.32,274.38 "/>
<polyline class="st0" points="992.88,294.9 992.88,295.38 992.7,295.8 992.52,296.22 992.22,296.52 991.92,296.82 991.5,297.06 
	991.08,297.18 990.66,297.3 990.18,297.24 989.7599,297.12 989.34,296.94 "/>
<polyline class="st0" points="988.2,294.9 988.2,294.66 988.2599,294.24 988.44,293.82 988.68,293.46 988.98,293.1 989.34,292.86 
	989.7599,292.68 990.18,292.56 990.66,292.56 991.08,292.62 991.5,292.74 991.74,292.86 "/>
<polyline class="st0" points="998.94,303.72 998.64,304.08 998.34,304.44 997.98,304.8 997.68,305.1 997.32,305.46 996.96,305.76 
	996.54,306.06 996.48,306.12 "/>
<polyline class="st0" points="993.72,307.98 993.54,308.1 993.06,308.34 992.58,308.58 992.04,308.82 991.56,309.06 991.02,309.3 
	990.48,309.54 989.94,309.72 989.34,309.9 988.8,310.14 988.2,310.32 987.6,310.5 987.48,310.5 "/>
<polyline class="st0" points="984.18,311.34 983.7599,311.4 983.1,311.52 982.44,311.64 981.72,311.76 981.06,311.88 980.34,312 
	979.62,312.06 978.9,312.18 978.18,312.24 977.52,312.3 "/>
<polyline class="st0" points="974.16,312.6 973.74,312.6 972.96,312.66 972.18,312.66 971.4,312.72 970.62,312.72 969.84,312.72 
	969.06,312.72 968.28,312.72 967.5,312.72 967.38,312.72 "/>
<polyline class="st0" points="964.02,312.66 963.54,312.6 961.98,312.54 960.42,312.42 958.86,312.3 957.3,312.18 "/>
<polyline class="st0" points="953.94,311.82 953.46,311.76 952.68,311.64 951.9,311.58 951.18,311.46 950.46,311.34 949.68,311.22 
	948.96,311.1 948.24,310.98 947.52,310.86 947.28,310.8 "/>
<polyline class="st0" points="943.92,310.14 943.38,309.96 942.72,309.84 942.06,309.66 941.4,309.48 940.74,309.36 940.14,309.18 
	939.48,309 938.88,308.82 938.28,308.64 937.68,308.46 937.44,308.34 "/>
<polyline class="st0" points="934.2599,307.2 933.84,307.02 933.36,306.78 932.82,306.6 932.34,306.36 931.86,306.12 931.44,305.88 
	930.96,305.64 930.54,305.4 930.12,305.16 929.7,304.92 929.28,304.62 928.86,304.38 928.5,304.08 928.32,304.02 "/>
<polyline class="st0" points="925.8,301.8 925.68,301.68 925.38,301.32 925.02,301.02 924.72,300.66 924.42,300.3 924.18,299.94 
	923.88,299.52 923.58,299.16 "/>
<polyline class="st0" points="922.08,266.82 918.42,258.84 924.12,256.2 "/>
<line class="st0" x1="927.18" y1="254.76" x2="933.3" y2="251.94"/>
<line class="st0" x1="936.36" y1="250.5" x2="942.48" y2="247.62"/>
<polyline class="st0" points="945.54,246.24 951.24,243.54 954.96,251.52 949.2599,254.16 "/>
<line class="st0" x1="946.2" y1="255.6" x2="940.08" y2="258.42"/>
<line class="st0" x1="937.02" y1="259.86" x2="930.9" y2="262.74"/>
<line class="st0" x1="927.84" y1="264.12" x2="922.08" y2="266.82"/>
<polyline class="st0" points="999.84,302.46 999.6,302.76 999.36,303.06 999.18,303.42 998.94,303.72 "/>
<polyline class="st1" points="807.06,310.8 861.66,285.36 865.32,293.28 810.72,318.72 807.06,310.8 "/>
<polyline class="st1" points="789,328.86 734.4,354.36 730.68,346.38 785.28,320.94 789,328.86 "/>
<path class="st1" d="M1071.6479,259.4536c4.6964,2.2766,10.3491,0.3149,12.6256-4.3815c2.2766-4.6964,0.3149-10.3491-4.3815-12.6257
	"/>
<path class="st1" d="M738.54,363c31.7341-11.5314,162.967-86.957,185.04-63.84c-9.0239-17.0416-13.925-37.4519-13.0215-56.7596
	c7.3432-49.2763,110.4755,29.1722,89.2816,60.0596c6.3918-7.2375,21.1225-7.3402,30.24-7.8601
	c12.3101-0.3691,24.7424,0.0541,37.02-1.0797c11.135-0.9594,23.5033-3.6185,30.72-12.9001c6.9548-8.9877,7.5416-21.4117,4.86-32.1
	c-1.4663-5.4319-4.1997-12.5688-9.2998-15.4801c-0.2361-0.0873-0.5068-0.2259-0.7201-0.36c-0.3729-0.1087-0.7729-0.2327-1.14-0.36
	c-0.329-0.0099-0.6833-0.0929-1.02-0.0599c-0.0951-0.0924-0.2582-0.0364-0.36-0.0001c-0.0858-0.0282-0.3287,0.0204-0.42,0
	c-0.3124,0.0218-0.6628,0.0653-0.96,0.18c-0.2474,0.0959-0.5726,0.1194-0.78,0.3c-0.7572,0.2243-1.4174,0.7251-2.04,1.2
	c-1.2019,0.9603-2.2972,2.1743-3.12,3.4799c-0.5649,0.5981-0.944,1.4049-1.38,2.1001c-0.5704,0.9328-1.0885,1.9535-1.5599,2.94"/>
<path class="st1" d="M629.58,316.98c-4.437-4.3708-13.5156-13.3765-19.92-11.5801c-5.9443,1.7573-6.4243,10.9773-6.72,16.14
	c-0.0109,7.4959,1.1507,15.0003,3.6601,22.08c1.105,2.8239,2.4604,5.5865,4.26,8.04c7.0097,8.4498,53.3257,66.7512,59.9396,73.2002
	c9.2672,9.3506,20.009,17.4374,32.2804,22.3797c38.6569,15.5145,81.2158-2.3355,116.82-18.4197
	c18.656-8.6179,73.0508-34.1309,92.4-43.1401c2.0892-1.0011,3.964-2.4897,5.46-4.2601c5.2397-6.8499-0.1372-15.7764-5.46-20.82
	c-4.6239-4.2878-11.0195-7.1817-17.4001-5.8799c-43.1701,16.1484-120.5836,65.2493-166.1998,56.2801
	c-6.0169-1.2879-12.0568-3.9882-15.8401-9.0002c-3.5734-4.8806-3.8424-11.1506-1.3199-16.56
	c4.9457-10.7629,16.7222-17.4753,26.9999-22.44"/>
<path class="st1" d="M629.5695,316.9464c-3.7134,3.6674-3.7506,9.6507-0.0833,13.3641c3.6674,3.7134,9.6508,3.7507,13.3641,0.0833"
	/>
<path class="st1" d="M1071.6523,259.4695c-143.5223-69.5721-315.3083-41.1702-428.8,70.8948"/>
<polyline class="st0" points="882.9,589.56 882.96,589.98 883.08,590.4 883.26,590.82 883.56,591.18 883.92,591.48 884.28,591.72 
	884.7,591.84 885.18,591.9 885.6,591.9 886.02,591.78 886.44,591.6 "/>
<polyline class="st0" points="887.64,589.56 887.64,589.32 887.52,588.9 887.34,588.48 887.1,588.06 886.8,587.76 886.44,587.52 
	886.02,587.34 885.6,587.22 885.18,587.16 884.7,587.28 884.28,587.4 884.1,587.52 "/>
<polyline class="st0" points="844.2,572.28 844.2,572.76 844.38,573.18 844.56,573.6 844.86,573.96 845.16,574.26 845.58,574.44 
	846,574.62 846.42,574.68 846.9,574.62 847.32,574.56 847.74,574.38 "/>
<polyline class="st0" points="848.88,572.28 848.88,572.1 848.82,571.62 848.64,571.2 848.4,570.84 848.1,570.54 847.74,570.24 
	847.32,570.06 846.9,570 846.42,569.94 846,570 845.58,570.18 845.34,570.3 "/>
<polyline class="st0" points="868.44,603.3 868.5,603.72 868.62,604.14 868.8,604.56 869.1,604.92 869.4,605.22 869.82,605.4 
	870.24,605.58 870.66,605.64 871.14,605.64 871.56,605.52 871.98,605.34 "/>
<polyline class="st0" points="873.12,603.24 873.12,603.06 873.06,602.58 872.88,602.22 872.64,601.8 872.34,601.5 871.98,601.2 
	871.56,601.02 871.14,600.96 870.66,600.9 870.24,600.96 869.82,601.14 869.58,601.26 "/>
<polyline class="st0" points="843.78,592.26 843.84,592.68 843.96,593.1 844.14,593.52 844.44,593.88 844.8,594.18 845.16,594.36 
	845.58,594.54 846.06,594.6 846.48,594.6 846.9,594.48 847.32,594.3 "/>
<polyline class="st0" points="848.52,592.2 848.52,592.02 848.4,591.54 848.22,591.18 847.98,590.76 847.68,590.46 847.32,590.16 
	846.9,589.98 846.48,589.92 846.06,589.86 845.58,589.92 845.16,590.1 844.98,590.22 "/>
<polyline class="st0" points="850.74,610.5 850.8,610.98 850.92,611.4 851.1,611.82 851.4,612.18 851.7,612.48 852.12,612.66 
	852.54,612.84 852.96,612.9 853.44,612.84 853.86,612.78 854.28,612.6 "/>
<polyline class="st0" points="855.48,610.5 855.48,610.32 855.36,609.84 855.18,609.42 854.94,609.06 854.64,608.76 854.28,608.46 
	853.86,608.28 853.44,608.22 852.96,608.16 852.54,608.22 852.12,608.4 851.88,608.52 "/>
<polyline class="st0" points="852.3,622.68 852.78,622.74 853.26,622.8 853.74,622.86 854.22,622.92 854.7,622.92 855.18,622.98 
	855.66,622.98 855.72,622.98 "/>
<polyline class="st0" points="859.08,622.56 859.26,622.56 859.8,622.44 860.34,622.32 860.88,622.2 861.42,622.02 861.96,621.84 
	862.56,621.66 863.1,621.48 863.64,621.24 864.24,621.06 864.78,620.82 865.38,620.58 865.5,620.52 "/>
<polyline class="st0" points="868.5,619.02 868.86,618.84 869.46,618.48 870.06,618.18 870.66,617.82 871.26,617.46 871.86,617.04 
	872.52,616.68 873.12,616.26 873.72,615.9 874.26,615.48 "/>
<polyline class="st0" points="877.02,613.5 877.38,613.26 877.98,612.78 878.58,612.36 879.18,611.88 879.78,611.4 880.38,610.86 
	880.98,610.38 881.58,609.9 882.18,609.36 882.3,609.3 "/>
<polyline class="st0" points="884.82,607.08 885.12,606.78 886.32,605.7 887.46,604.62 888.54,603.48 889.68,602.4 "/>
<polyline class="st0" points="892.02,599.94 892.32,599.58 892.86,599.04 893.34,598.44 893.88,597.9 894.36,597.3 894.84,596.76 
	895.32,596.22 895.8,595.62 896.28,595.08 896.46,594.9 "/>
<polyline class="st0" points="898.56,592.26 898.92,591.78 899.34,591.18 899.76,590.64 900.12,590.1 900.48,589.56 900.9,589.02 
	901.26,588.48 901.62,588 901.92,587.46 902.28,586.92 902.4,586.68 "/>
<polyline class="st0" points="904.08,583.74 904.32,583.38 904.56,582.9 904.8,582.36 905.04,581.88 905.22,581.4 905.46,580.92 
	905.64,580.44 905.82,580.02 906,579.54 906.12,579.06 906.3,578.58 906.42,578.1 906.54,577.68 906.6,577.5 "/>
<polyline class="st0" points="907.14,574.2 907.14,574.02 907.14,573.54 907.2,573.12 907.2,572.64 907.2,572.16 907.14,571.68 
	907.14,571.2 907.08,570.78 "/>
<polyline class="st0" points="887.46,545.04 885.18,536.58 879.12,538.2 "/>
<line class="st0" x1="875.82" y1="539.04" x2="869.34" y2="540.78"/>
<line class="st0" x1="866.04" y1="541.68" x2="859.56" y2="543.42"/>
<polyline class="st0" points="856.26,544.32 850.2,545.94 852.42,554.4 858.54,552.78 "/>
<line class="st0" x1="861.78" y1="551.88" x2="868.32" y2="550.14"/>
<line class="st0" x1="871.56" y1="549.24" x2="878.1" y2="547.5"/>
<line class="st0" x1="881.34" y1="546.66" x2="887.46" y2="545.04"/>
<polyline class="st0" points="850.8,622.32 851.22,622.38 851.58,622.5 851.94,622.56 852.3,622.68 "/>
<polyline class="st1" points="1003.86,504.72 945.66,520.32 947.94,528.78 1006.14,513.18 1003.86,504.72 "/>
<polyline class="st1" points="1029.2999,507 1087.5,491.4 1085.22,482.94 1027.08,498.54 1029.2999,507 "/>
<path class="st1" d="M751.0066,627.7249c-2.1346,4.7626-0.0043,10.3539,4.7582,12.4885c4.7626,2.1347,10.3539,0.0043,12.4886-4.7582
	"/>
<path class="st1" d="M750.96,627.78c-34.8654-14.2281-9.5889,39.4653,10.1406,40.6184
	c34.3636,6.6121,58.6133-45.0667,89.6994-46.0784c-7.0283-2.2366-11.149-9.1074-13.5-15.72
	c-4.8854-14.516-3.9158-30.4171-0.9002-45.24c3.1079-14.0742,8.3511-28.7686,17.58-40.0201
	c8.6643-10.3438,18.1389-11.2127,27.7202-1.3798c4.0463,4.1052,7.4725,9.0392,10.3202,14.0398
	c3.1481,5.1626,5.8232,10.6476,8.3398,16.1401c2.8137,6.6479,6.0013,13.3764,6.72,20.6401"/>
<path class="st1" d="M1142.3253,414.209c5.2019,0.4223,9.7614-3.4523,10.1836-8.6543c0.4224-5.202-3.4523-9.7614-8.6543-10.1837
	l-0.0746,0.029c1.4918-23.2743,10.5217-30.9281,26.4603-9.6597c4.1857,5.9452,7.9064,12.4625,9.4797,19.6197
	c1.4968,6.5561,1.9233,84.7073,2.1606,91.3201c0.0803,52.3199-33.0814,80.7812-79.6216,96.7193
	c-35.6274,12.3969-93.4716,25.7738-130.3194,36.2418c-5.8296,1.8227-12.9437-0.1127-15.1196-6.3016
	c-4.2564-10.2128-1.0385-25.2359,10.1396-29.4596c46.4432-15.4703,131.3367-25.5588,162.601-64.4382
	c7.0465-9.2603,7.4852-23.1554-4.2013-28.7416c-6.4016-3.1886-13.8162-3.4569-20.8196-2.7601
	c-13.3873,1.1576-73.4581,19.0726-87.2392,22.2591C996.7953,526.7405,905.511,547.303,907.08,570.78"/>
<path class="st1" d="M768.24,635.52c62.0306-143.0436,218.7991-235.8099,374.04-221.28"/>
<polyline class="st2" points="27.78,690 1198.0199,690 1198.0199,95.7601 27.78,95.7601 27.78,690 "/>
</svg>
